<?xml version="1.0" standalone="no"?>
<!DOCTYPE svg PUBLIC "-//W3C//DTD SVG 20010904//EN"
 "http://www.w3.org/TR/2001/REC-SVG-20010904/DTD/svg10.dtd">
<svg version="1.0" xmlns="http://www.w3.org/2000/svg"
 width="1568.000000pt" height="1568.000000pt" viewBox="0 0 1568.000000 1568.000000"
 preserveAspectRatio="xMidYMid meet">
<metadata>
Created by potrace 1.11, written by Peter Selinger 2001-2013
</metadata>
<g transform="translate(0.000000,1568.000000) scale(0.100000,-0.100000)"
fill="#000000" stroke="none">
<path d="M13858 11755 c-2 -2 -41 -6 -88 -9 -154 -12 -203 -17 -300 -32 -14
-2 -50 -6 -80 -9 -30 -3 -62 -8 -71 -11 -9 -2 -34 -6 -55 -9 -39 -4 -207 -30
-254 -40 -14 -3 -45 -8 -70 -11 -25 -3 -47 -8 -50 -9 -3 -2 -24 -6 -46 -9 -44
-7 -66 -11 -104 -20 -14 -3 -38 -8 -54 -11 -16 -2 -52 -9 -80 -15 -28 -5 -62
-12 -76 -14 -14 -3 -25 -5 -25 -6 0 -1 -9 -3 -20 -5 -11 -2 -31 -6 -45 -9 -14
-4 -41 -9 -60 -12 -19 -3 -38 -8 -41 -10 -4 -2 -24 -7 -45 -10 -48 -8 -69 -12
-69 -14 0 -2 -83 -20 -165 -36 -14 -3 -41 -9 -60 -14 -19 -5 -46 -11 -60 -14
-14 -3 -34 -7 -45 -10 -11 -2 -51 -12 -90 -20 -90 -21 -95 -22 -191 -46 -45
-11 -92 -22 -105 -24 -13 -3 -24 -5 -24 -6 0 -2 -24 -7 -70 -15 -22 -4 -43 -9
-47 -12 -5 -2 -16 -6 -25 -8 -10 -2 -54 -12 -99 -24 -45 -11 -92 -23 -105 -25
-13 -3 -26 -6 -29 -7 -3 -1 -9 -3 -15 -4 -5 -2 -12 -4 -15 -5 -3 -1 -14 -3
-25 -5 -11 -2 -63 -15 -115 -29 -53 -14 -109 -28 -125 -31 -40 -8 -60 -13 -60
-15 0 -2 -18 -6 -64 -15 -19 -3 -39 -9 -45 -13 -6 -3 -22 -8 -36 -10 -14 -1
-39 -7 -56 -13 -17 -5 -40 -11 -50 -13 -10 -2 -57 -14 -104 -26 -47 -12 -92
-24 -100 -26 -8 -2 -60 -15 -115 -29 -55 -14 -109 -27 -120 -29 -11 -3 -20 -5
-20 -6 0 -1 -7 -3 -15 -5 -8 -1 -35 -8 -60 -15 -25 -7 -52 -13 -60 -15 -8 -2
-44 -11 -80 -20 -36 -9 -72 -19 -80 -20 -15 -4 -202 -52 -230 -59 -40 -11
-107 -28 -125 -31 -11 -2 -63 -16 -115 -30 -52 -13 -108 -27 -125 -30 -16 -3
-43 -10 -60 -15 -29 -9 -139 -37 -180 -46 -30 -6 -177 -41 -182 -44 -12 -4
-45 -12 -153 -36 -69 -15 -134 -28 -145 -30 -11 -2 -81 -17 -155 -35 -74 -17
-146 -33 -160 -35 -14 -3 -59 -11 -100 -19 -41 -8 -91 -17 -110 -20 -19 -3
-42 -8 -50 -10 -8 -2 -39 -7 -69 -10 -30 -4 -63 -9 -75 -11 -32 -7 -146 -17
-193 -18 -24 -1 -43 -4 -43 -7 0 -10 -1143 -8 -1162 2 -10 6 -19 5 -23 -1 -4
-6 -11 -8 -16 -4 -6 3 -79 8 -162 9 -148 4 -350 10 -607 20 -69 3 -199 7 -290
10 -91 2 -165 5 -165 6 0 0 -43 2 -95 4 -194 7 -429 15 -555 20 -274 11 -1080
37 -1102 36 -27 -2 -44 -1 -238 4 -336 10 -1685 6 -1685 -5 0 -4 -57 -7 -252
-14 -27 0 -48 -3 -48 -6 0 -3 -26 -5 -58 -5 -31 1 -61 -1 -66 -4 -5 -2 -28 -5
-50 -7 -37 -2 -71 -6 -186 -21 -19 -2 -48 -6 -63 -8 -15 -2 -40 -6 -55 -10
-15 -4 -36 -9 -47 -10 -51 -8 -103 -19 -125 -28 -8 -3 -42 -13 -75 -22 -113
-32 -203 -90 -229 -148 -15 -35 -29 -69 -30 -77 -1 -3 -4 -9 -7 -15 -4 -5 -10
-28 -14 -50 -5 -22 -9 -42 -10 -45 -7 -25 -19 -79 -21 -95 -2 -11 -6 -36 -9
-55 -16 -105 -19 -161 -18 -440 1 -317 4 -440 13 -440 3 0 5 -21 6 -48 1 -26
4 -74 9 -107 4 -33 8 -73 10 -90 4 -49 15 -158 21 -195 2 -20 6 -58 9 -85 3
-28 7 -60 9 -72 3 -12 7 -46 10 -75 4 -29 8 -69 11 -88 3 -19 7 -61 10 -92 4
-32 8 -68 11 -80 2 -13 6 -41 9 -63 3 -22 7 -58 10 -80 3 -22 7 -56 9 -75 2
-19 9 -71 15 -115 6 -44 13 -101 16 -127 3 -27 8 -69 11 -95 3 -27 7 -64 9
-83 2 -19 4 -35 5 -35 1 0 3 -20 5 -45 1 -25 6 -67 9 -95 9 -73 17 -193 21
-325 2 -63 4 -117 5 -120 1 -3 1 -9 0 -15 -1 -5 -1 -57 0 -115 1 -58 3 -307 5
-555 5 -466 9 -600 20 -635 4 -13 2 -20 -7 -20 -8 0 -9 -3 -3 -8 6 -4 11 -23
11 -42 1 -19 4 -60 8 -90 3 -30 9 -75 12 -100 5 -44 12 -96 20 -135 2 -11 6
-36 9 -55 12 -68 53 -227 67 -260 6 -14 14 -34 18 -45 23 -65 87 -185 131
-245 51 -70 164 -180 186 -180 6 0 13 -4 15 -9 4 -11 117 -71 134 -71 8 0 14
-4 14 -9 0 -5 10 -11 23 -14 12 -2 54 -17 92 -31 58 -22 200 -65 265 -81 142
-33 201 -46 230 -49 19 -2 46 -7 60 -10 25 -6 75 -14 120 -21 14 -2 45 -6 70
-10 51 -7 69 -10 155 -19 33 -4 74 -9 90 -13 17 -3 55 -6 85 -8 30 -2 55 -3
55 -4 0 -1 32 -4 70 -6 39 -3 102 -7 140 -10 164 -12 391 -18 710 -19 393 0
626 7 945 30 47 3 103 7 125 9 125 8 243 18 260 21 11 2 49 6 85 9 36 3 81 7
100 10 103 11 130 14 180 20 126 14 128 14 280 36 41 6 91 13 110 15 19 3 62
9 94 14 32 5 62 7 67 5 4 -3 10 -2 13 3 2 4 20 9 38 10 19 1 45 5 58 8 36 8
70 13 110 18 19 3 35 5 35 6 0 2 36 9 75 14 19 3 35 5 35 6 0 1 15 3 34 6 39
5 65 10 101 18 14 3 36 8 50 10 14 3 35 7 46 10 12 2 37 7 55 10 65 11 93 17
101 22 5 3 23 7 41 9 49 5 93 14 121 25 15 5 26 7 26 5 0 -8 74 34 105 60 48
41 127 120 170 171 22 26 45 52 50 58 6 6 26 32 45 56 19 25 38 50 43 55 4 6
51 69 104 140 52 72 99 132 102 135 4 3 22 29 40 58 18 28 37 52 43 52 5 0 7
4 3 9 -3 5 -1 13 5 16 9 6 70 83 110 141 23 34 103 138 114 150 6 6 23 26 38
45 14 19 36 45 47 59 12 14 38 45 59 70 56 68 262 272 307 306 22 16 42 31 45
34 20 20 193 107 231 116 80 19 244 6 314 -26 11 -5 31 -12 45 -16 45 -12 285
-136 324 -167 6 -5 43 -30 82 -55 74 -49 192 -130 209 -144 10 -9 93 -71 155
-118 18 -14 59 -45 89 -70 31 -24 61 -48 66 -52 6 -5 21 -18 35 -29 14 -11 38
-30 53 -42 15 -12 38 -31 50 -42 13 -11 46 -38 75 -60 29 -21 52 -43 52 -47 0
-4 6 -8 13 -8 7 0 19 -9 27 -20 8 -11 20 -20 26 -20 7 0 14 -3 16 -8 2 -4 39
-36 83 -72 44 -36 82 -68 83 -72 2 -5 8 -8 14 -8 6 0 31 -17 57 -38 25 -20 69
-53 96 -72 28 -19 52 -38 53 -42 2 -4 8 -8 12 -8 5 0 26 -12 47 -26 51 -35
164 -92 200 -100 52 -12 106 -14 443 -14 341 1 422 3 635 14 66 4 150 9 188
11 37 2 98 6 135 10 70 6 140 12 232 20 54 5 105 10 185 20 22 3 60 8 85 10
57 7 103 13 160 20 25 4 63 9 85 11 22 3 49 8 60 11 11 3 36 7 55 8 34 3 89
12 240 40 41 8 89 16 105 19 31 4 214 42 345 71 41 9 87 18 103 20 15 2 32 7
38 10 5 4 20 8 32 10 35 4 367 92 415 109 23 8 44 15 47 16 3 0 6 0 8 1 1 0
11 2 22 4 48 10 487 155 530 175 11 5 47 19 80 30 33 12 69 25 80 30 11 5 65
28 120 50 242 100 444 202 703 355 39 23 117 79 120 87 2 4 10 8 18 8 8 0 14
5 14 10 0 6 5 10 10 10 31 0 114 127 147 222 24 73 28 90 41 183 14 104 6 465
-14 605 -2 19 -6 51 -9 70 -2 19 -6 46 -9 60 -2 14 -8 52 -12 85 -4 33 -8 62
-9 65 0 3 -5 30 -9 60 -4 30 -10 64 -12 75 -2 11 -6 34 -8 50 -3 17 -17 98
-31 180 -33 193 -34 195 -40 225 -3 14 -8 41 -11 60 -10 68 -13 85 -18 115 -3
17 -8 48 -11 70 -3 22 -10 63 -15 90 -17 90 -22 130 -24 158 0 15 -3 27 -6 27
-3 0 -6 12 -6 28 -1 26 -11 111 -19 159 -2 13 -6 27 -10 33 -3 5 -1 10 5 10 6
0 9 4 6 9 -10 15 -24 140 -31 266 -3 39 -7 99 -10 135 -8 101 -15 199 -19 273
-2 37 -6 71 -10 74 -3 3 -1 14 5 24 5 11 6 19 2 19 -4 0 -9 17 -9 38 -2 52
-14 239 -19 287 -2 22 -6 75 -9 119 -9 123 -16 207 -22 256 -6 44 -11 99 -18
171 -2 20 -6 50 -9 65 -4 16 -9 49 -12 74 -3 25 -7 54 -9 65 -2 11 -9 52 -15
90 -17 105 -18 109 -24 125 -5 13 -23 95 -33 149 -2 12 -11 45 -19 71 -1 3 -8
25 -15 50 -7 25 -14 47 -15 50 -3 15 -29 86 -34 95 -3 6 -7 17 -8 26 -1 9 -12
38 -24 65 -12 27 -23 55 -25 62 -5 24 -97 188 -150 267 -94 140 -215 265 -294
303 -30 15 -57 27 -60 27 -3 1 -25 7 -50 15 -25 7 -58 14 -75 16 -16 1 -30 3
-30 4 0 9 -498 23 -507 15z m-540 -2229 c104 -23 261 -168 378 -351 53 -82
144 -262 137 -269 -4 -3 -1 -6 5 -6 7 0 12 -8 12 -18 0 -10 4 -22 9 -27 12
-12 107 -300 114 -343 3 -17 8 -35 11 -40 3 -5 8 -24 11 -43 8 -49 24 -140 30
-168 17 -87 24 -372 12 -436 -4 -16 -9 -47 -12 -69 -13 -81 -67 -218 -99 -252
-6 -6 -20 -25 -31 -40 -48 -70 -267 -274 -293 -274 -6 0 -12 -4 -14 -9 -3 -10
-48 -37 -128 -78 -30 -15 -56 -31 -58 -35 -2 -5 -12 -8 -21 -8 -10 0 -21 -3
-25 -7 -4 -5 -11 -8 -14 -9 -4 0 -23 -7 -44 -16 -41 -18 -190 -66 -228 -73
-14 -3 -36 -7 -50 -10 -91 -19 -191 -36 -249 -42 -140 -13 -662 -5 -677 10 -7
7 7 37 17 37 5 0 9 6 9 14 0 8 6 21 13 28 24 26 125 268 111 268 -2 0 0 8 5
18 5 9 12 33 15 52 27 161 31 210 29 315 -2 108 -7 172 -18 230 -2 11 -4 20
-5 20 -1 0 -4 14 -6 30 -3 17 -14 62 -26 100 -12 39 -23 75 -24 80 -1 6 -18
45 -38 88 -19 42 -35 78 -34 80 1 1 -28 46 -65 99 -59 87 -155 193 -230 255
-47 40 -180 112 -249 136 -38 13 -70 26 -73 29 -6 6 128 88 144 88 6 0 11 4
11 9 0 5 8 11 18 15 9 3 24 10 32 16 45 31 291 166 465 256 226 116 421 204
575 259 58 21 112 40 120 43 8 3 19 4 24 3 4 -1 14 4 22 10 8 6 14 9 14 6 0
-3 24 1 53 9 28 8 77 17 107 20 30 3 56 7 58 9 4 4 123 -3 150 -9z m-10901
-1313 c-21 -18 -37 -35 -37 -38 0 -2 -16 -21 -35 -42 -19 -21 -35 -44 -35 -50
0 -7 -4 -13 -10 -13 -15 0 -98 -176 -125 -264 -39 -133 -48 -197 -47 -346 0
-131 5 -178 27 -270 31 -127 92 -276 146 -352 11 -14 19 -31 19 -37 0 -6 5
-11 12 -11 6 0 9 -3 5 -6 -3 -3 -21 -1 -39 5 -18 6 -37 11 -43 12 -24 3 -155
55 -205 82 -198 107 -302 233 -359 432 -26 94 -32 131 -38 257 -12 261 90 443
312 556 57 28 203 79 250 86 22 3 49 7 60 10 11 2 47 7 80 11 33 3 61 8 62 9
2 2 10 3 20 3 11 0 5 -11 -20 -34z m1058 -38 c17 -3 44 -7 60 -9 17 -2 75 -13
130 -25 55 -11 116 -23 135 -26 19 -3 51 -10 70 -15 19 -5 49 -12 65 -15 17
-3 86 -19 155 -35 69 -17 136 -33 150 -36 14 -3 39 -9 56 -15 17 -5 40 -11 50
-13 11 -2 39 -9 64 -16 25 -7 53 -14 62 -16 44 -10 55 -13 78 -22 14 -5 27
-10 30 -10 3 0 25 -5 50 -12 25 -7 52 -14 60 -15 8 -2 16 -4 18 -5 1 -2 7 -4
12 -5 6 -1 11 -3 13 -5 1 -1 9 -3 17 -5 24 -5 119 -32 195 -55 39 -12 75 -22
80 -24 6 -1 57 -17 115 -35 58 -18 110 -34 115 -35 6 -1 33 -10 60 -19 28 -9
53 -16 56 -14 3 1 12 -3 20 -9 8 -7 30 -15 49 -20 43 -10 42 -9 60 -17 17 -7
410 -138 425 -141 6 -2 21 -7 35 -13 14 -6 52 -18 85 -28 33 -9 69 -21 80 -25
37 -16 155 -41 164 -35 5 3 12 1 15 -3 3 -5 31 -10 63 -11 31 -1 58 -3 60 -5
2 -1 -50 -17 -114 -34 -65 -18 -149 -41 -188 -52 -38 -11 -81 -23 -95 -26 -14
-2 -32 -7 -40 -11 -8 -3 -19 -7 -25 -8 -5 -2 -46 -13 -90 -24 -44 -12 -91 -24
-104 -27 -14 -3 -27 -7 -31 -9 -5 -3 -130 -38 -180 -50 -8 -2 -60 -16 -115
-30 -99 -26 -118 -31 -153 -39 -9 -2 -37 -9 -62 -16 -25 -7 -53 -14 -62 -16
-10 -2 -26 -6 -35 -8 -128 -31 -202 -48 -223 -51 -14 -2 -36 -8 -50 -13 -14
-5 -28 -10 -33 -10 -4 0 -31 -6 -60 -11 -28 -6 -61 -13 -72 -15 -11 -3 -40 -9
-65 -15 -25 -5 -58 -12 -75 -15 -16 -3 -43 -9 -60 -12 -16 -4 -39 -8 -50 -10
-11 -1 -20 -3 -20 -4 0 -1 -11 -4 -25 -6 -118 -21 -211 -37 -240 -41 -19 -3
-64 -11 -100 -19 -36 -8 -85 -16 -110 -18 -25 -3 -56 -7 -69 -10 -13 -3 -47
-8 -75 -11 -28 -3 -67 -7 -86 -10 -116 -16 -220 -25 -220 -18 0 2 11 19 24 36
23 30 87 150 87 162 0 2 8 24 18 47 16 38 24 69 47 168 18 80 24 295 11 394
-11 81 -40 192 -67 261 -46 117 -142 275 -199 329 -38 37 -39 48 -3 41 15 -3
41 -8 57 -10z m7059 -42 c-4 -16 -9 -32 -13 -38 -3 -5 -6 -14 -7 -20 -2 -11
-6 -32 -28 -145 -15 -75 -16 -374 -2 -430 11 -48 19 -85 21 -105 2 -12 10 -42
19 -68 25 -74 23 -77 -26 -60 -24 8 -77 25 -118 38 -111 34 -403 125 -420 131
-8 3 -17 6 -20 6 -3 1 -34 11 -70 23 -36 12 -67 22 -70 22 -14 1 -99 27 -124
38 l-29 13 29 18 c16 10 31 21 34 24 6 8 271 199 308 222 43 28 64 42 76 53 6
6 47 35 91 65 44 30 82 57 85 60 3 3 25 19 50 35 25 17 47 33 48 38 2 4 10 7
18 7 8 0 14 5 14 10 0 6 6 10 14 10 8 0 16 3 18 8 3 7 97 72 105 72 2 0 0 -12
-3 -27z"/>
</g>
</svg>
