<svg xmlns="http://www.w3.org/2000/svg" viewBox="0 0 49.46 24.74"><defs><style>.a{fill:#363636;}</style></defs><title>robber</title><path class="a" d="M48.53,10C48.2,6.41,48.4,2.37,46.24.42s-18,3.46-22.37,3.85S1.21,2.92.36,4.87s0,5.86.36,9.43C1,17.68.28,22,2.18,23.44s9.58,1.91,17.46.2c1.22-.27,3.53-5.34,5.52-5.52s5.92,4.34,7.15,4.37c8.33.25,14.41-2.15,16.5-3.72C50.29,17.66,48.83,13.36,48.53,10ZM5.32,14.09c-1.81-6.43,13.17-.65,14-.45a2.93,2.93,0,0,0,1,.15C18.57,14.23,6.48,18.18,5.32,14.09Zm38.55-.58c-2.94,3.85-10.46.66-13.46-.17,0,0,9.75-7.27,11.78-6.22C43.73,7.91,45,12.09,43.87,13.51Z"/><ellipse class="a" cx="9.12" cy="13.62" rx="2.47" ry="3.09" transform="matrix(1, -0.09, 0.09, 1, -1.19, 0.88)"/><ellipse class="a" cx="35.89" cy="12.9" rx="2.88" ry="3.59" transform="translate(-1.01 3.28) rotate(-5.16)"/></svg>